<?xml version="1.0" encoding="utf-8"?>
<!-- Generator: Adobe Illustrator 28.0.0, SVG Export Plug-In . SVG Version: 6.00 Build 0)  -->
<svg version="1.1" id="Layer_1" xmlns="http://www.w3.org/2000/svg" xmlns:xlink="http://www.w3.org/1999/xlink" x="0px" y="0px"
	 viewBox="0 0 24 24" style="enable-background:new 0 0 24 24;" xml:space="preserve">
<style type="text/css">
	.st0{fill:#606C38;}
</style>
<path class="st0" d="M7,23l3.1-15.6c0.1-0.5,0.3-0.8,0.7-1.1C11.1,6.1,11.5,6,11.9,6c0.4,0,0.7,0.1,1.1,0.2c0.3,0.2,0.6,0.4,0.8,0.8
	l1,1.6c0.3,0.5,0.7,0.9,1.2,1.3c0.5,0.4,1,0.7,1.6,0.9V9H19v14h-1.5V12.8c-0.8-0.2-1.5-0.5-2.2-0.9c-0.7-0.4-1.3-0.9-1.8-1.5l-0.6,3
	l2.1,2V23h-2v-6l-2.1-2l-1.8,8H7z M7.4,13.1l-2.1-0.4c-0.3,0-0.5-0.2-0.6-0.4c-0.2-0.2-0.2-0.5-0.2-0.8l0.8-3.9
	c0.1-0.5,0.4-1,0.8-1.3s1-0.4,1.5-0.3l1.2,0.2L7.4,13.1z M13.5,5.5c-0.6,0-1-0.2-1.4-0.6c-0.4-0.4-0.6-0.9-0.6-1.4s0.2-1,0.6-1.4
	s0.9-0.6,1.4-0.6s1,0.2,1.4,0.6s0.6,0.9,0.6,1.4s-0.2,1-0.6,1.4C14.5,5.3,14.1,5.5,13.5,5.5z"/>
</svg>
