<?xml version="1.0" encoding="utf-8"?>
<!-- Generator: Adobe Illustrator 28.0.0, SVG Export Plug-In . SVG Version: 6.00 Build 0)  -->
<svg version="1.1" id="Layer_1" xmlns="http://www.w3.org/2000/svg" xmlns:xlink="http://www.w3.org/1999/xlink" x="0px" y="0px"
	 viewBox="0 0 76.2 74.2" style="enable-background:new 0 0 76.2 74.2;" xml:space="preserve">
<style type="text/css">
	.st0{fill:#283618;}
</style>
<g>
	<path class="st0" d="M39.2,0.4C19,0.4,2.5,16.8,2.5,37.1c0,9.9,4,18.9,10.3,25.5c-2.8,2.1-5.1,3-6.6,2.3c-1.6-0.7-2.3-3.3-2.6-5.4
		c-0.1-0.6-0.6-0.9-1.1-0.8c-0.6,0.1-0.9,0.6-0.8,1.1c0.6,3.8,1.8,6,3.8,6.9C6,67,6.7,67.1,7.3,67.1c2,0,4.3-1.1,7-3.1
		c6.5,6,15.3,9.8,24.9,9.8c20.2,0,36.7-16.4,36.7-36.7S59.4,0.4,39.2,0.4z M39.2,70.7c-8.6,0-16.5-3.3-22.5-8.6l26-17
		c0.5-0.3,0.6-0.9,0.3-1.4s-0.9-0.6-1.4-0.3L25.1,54.2c1.6-1.6,3.3-3.3,5.1-5.1c3-3,5.9-6.1,8.7-9.2c0.4-0.4,0.3-1-0.1-1.4
		s-1-0.3-1.4,0.1c-2.8,3.1-5.7,6.2-8.7,9.2C23.6,53,19,57.6,15.2,60.7c-6-6.1-9.7-14.4-9.7-23.6c0-18.6,15.1-33.7,33.7-33.7
		s33.7,15.1,33.7,33.7S57.7,70.7,39.2,70.7z"/>
	<path class="st0" d="M53.9,23.7c0,0.3,2.7-0.2,4.3,1.5s0.9,4.3,1.2,4.4c0.3,0,2.1-3.6,0.2-5.7C57.7,21.9,53.9,23.4,53.9,23.7z"/>
	<path class="st0" d="M64.2,19.6C64.2,19.5,64.2,19.5,64.2,19.6c-0.5-0.5-1.2-0.8-1.9-0.8c-0.6,0-1.2,0-1.8,0.1l0,0
		c-0.6,0.1-1.3,0.2-1.9,0.4c-1.7,0.5-3.3,1.3-4.6,2.5l0,0l0,0l0,0l0,0c-0.1,0.1-0.3,0.2-0.4,0.4l-2.4,2.2c-0.6,0.2-1.3,0.4-1.9,0.6
		c-2,0.5-4.1,0.6-6.1,0.4c-1.3-0.2-2.6-0.5-3.9-1c-1.2-0.5-2.5-0.2-3.5,0.7l-1.5,1.4l-0.1,0.1c-0.2,0.2-0.2,0.4,0,0.5l6.6,7
		l-0.3,0.2c-0.3,0.3-0.5,0.6-0.6,1s-0.1,0.9,0,1.2s0.3,0.6,0.5,0.8l0.9,1c0.2,0.2,0.5,0.4,0.8,0.5c0.4,0.2,0.8,0.2,1.2,0.1
		c0,0,0,0,0.1,0c0,0.1-0.1,0.2-0.1,0.3c-0.1,0.7,0.1,1.4,0.6,1.9l0.9,1c0.6,0.6,1.5,0.8,2.3,0.6c0.3-0.1,0.6-0.3,0.8-0.5l0.3-0.2
		l6.5,6.9c0.1,0.2,0.4,0.2,0.5,0l1.7-1.5c0.4-0.4,0.7-0.8,0.9-1.4c0.2-0.7,0.2-1.4,0-2.1c-0.4-1.3-0.6-2.6-0.7-3.9
		c-0.1-2,0.2-4.1,0.8-6.1c0.2-0.6,0.4-1.2,0.7-1.9l2.4-2.2c0.1-0.1,0.3-0.3,0.4-0.4l0.1-0.1l0,0l0,0c1.1-1.2,1.9-2.6,2.6-4.1
		c0.3-0.7,0.5-1.4,0.6-2.1c0,0,0,0,0-0.1c0.1-0.6,0.2-1.1,0.2-1.7C65,20.8,64.7,20.1,64.2,19.6z M63.3,25.1
		c-0.6,1.4-1.4,2.7-2.4,3.9l0,0l0,0l0,0l0,0l0,0c-0.1,0.1-0.2,0.2-0.4,0.4L49.3,39.8l-2.9-3.1l3.2-3c0.2-0.1,0.2-0.4,0-0.5
		c-0.1-0.2-0.4-0.2-0.5,0l-3.2,3l-2.9-3l11.1-10.4c0.1-0.1,0.3-0.2,0.4-0.3l0,0l0,0l0,0c1.3-1.1,2.8-1.9,4.4-2.3
		c0.4-0.1,0.8-0.2,1.2-0.3c-0.1,1,0.2,2,0.9,2.8l0,0c0.7,0.7,1.7,1.1,2.7,1C63.6,24.1,63.5,24.6,63.3,25.1z"/>
</g>
</svg>
