<?xml version="1.0" encoding="utf-8"?>
<!-- Generator: Adobe Illustrator 28.0.0, SVG Export Plug-In . SVG Version: 6.00 Build 0)  -->
<svg version="1.1" id="Layer_1" xmlns="http://www.w3.org/2000/svg" xmlns:xlink="http://www.w3.org/1999/xlink" x="0px" y="0px"
	 viewBox="0 0 24 24" style="enable-background:new 0 0 24 24;" xml:space="preserve">
<style type="text/css">
	.st0{fill:#606C38;}
</style>
<path class="st0" d="M5.7,10l1.9,0.8c0.2-0.5,0.5-0.9,0.7-1.3c0.2-0.4,0.5-0.9,0.8-1.3L7.8,7.9L5.7,10z M9.2,12.1l2.9,2.8
	c0.7-0.3,1.4-0.7,2.2-1.2s1.6-1.2,2.3-1.9c1.2-1.2,2.1-2.5,2.7-3.9s0.9-2.7,0.9-3.9c-1.2-0.1-2.5,0.2-3.9,0.9s-2.7,1.6-3.9,2.7
	c-0.7,0.7-1.3,1.5-1.9,2.2C9.9,10.6,9.5,11.4,9.2,12.1z M13.7,10.5c-0.4-0.4-0.6-0.9-0.6-1.4c0-0.6,0.2-1,0.6-1.4
	c0.4-0.4,0.9-0.6,1.4-0.6c0.6,0,1,0.2,1.4,0.6c0.4,0.4,0.6,0.9,0.6,1.4c0,0.6-0.2,1-0.6,1.4c-0.4,0.4-0.9,0.6-1.4,0.6
	C14.5,11.1,14,10.9,13.7,10.5z M14.1,18.5l2.1-2.1L15.9,15c-0.4,0.3-0.9,0.6-1.3,0.8c-0.4,0.2-0.9,0.5-1.4,0.7L14.1,18.5z M22,2.2
	c0.3,2,0.1,4-0.6,5.9c-0.7,1.9-1.9,3.7-3.7,5.5l0.5,2.5c0.1,0.3,0,0.7-0.1,1c-0.1,0.3-0.3,0.6-0.5,0.8L13.4,22l-2.1-4.9l-4.3-4.3
	l-4.9-2.1l4.2-4.2C6.6,6.3,6.8,6.1,7.2,6c0.3-0.1,0.7-0.1,1,0l2.5,0.5c1.7-1.7,3.6-3,5.5-3.7S19.9,1.9,22,2.2z M3.9,16
	c0.6-0.6,1.3-0.9,2.1-0.9c0.8,0,1.6,0.3,2.1,0.9c0.6,0.6,0.9,1.3,0.9,2.1c0,0.8-0.3,1.6-0.9,2.1c-0.4,0.4-1.1,0.8-2.1,1.1
	c-1,0.3-2.3,0.6-4,0.8c0.2-1.7,0.5-3.1,0.8-4S3.5,16.4,3.9,16z M5.3,17.4c-0.2,0.2-0.3,0.5-0.5,0.9c-0.2,0.4-0.3,0.9-0.3,1.3
	c0.5-0.1,0.9-0.2,1.3-0.3s0.7-0.3,0.9-0.5c0.2-0.2,0.3-0.4,0.3-0.7c0-0.3-0.1-0.5-0.3-0.7c-0.2-0.2-0.4-0.3-0.7-0.3
	C5.8,17.1,5.6,17.2,5.3,17.4z"/>
</svg>
